<?xml version="1.0" encoding="UTF-8"?>
<svg xmlns="http://www.w3.org/2000/svg" viewBox="0 0 600 400" width="600" height="400">
  <defs>
    <linearGradient id="bg" x1="0%" y1="0%" x2="100%" y2="100%">
      <stop offset="0%" style="stop-color:#dc2626"/>
      <stop offset="100%" style="stop-color:#ea580c"/>
    </linearGradient>
  </defs>
  <rect width="600" height="400" fill="url(#bg)" rx="16"/>
  <circle cx="50" cy="350" r="3" fill="rgba(255,255,255,0.15)"/>
  <circle cx="70" cy="350" r="3" fill="rgba(255,255,255,0.15)"/>
  <circle cx="530" cy="350" r="3" fill="rgba(255,255,255,0.15)"/>
  <circle cx="550" cy="350" r="3" fill="rgba(255,255,255,0.15)"/>
  <g transform="translate(160,80)">
    <rect x="0" y="0" width="280" height="200" rx="12" fill="white" opacity="0.95"/>
    <rect x="20" y="20" width="180" height="8" rx="4" fill="#ef4444" opacity="0.6"/>
    <rect x="20" y="40" width="240" height="6" rx="3" fill="#333" opacity="0.15"/>
    <rect x="20" y="56" width="200" height="6" rx="3" fill="#333" opacity="0.12"/>
    <rect x="20" y="72" width="230" height="6" rx="3" fill="#333" opacity="0.12"/>
    <rect x="20" y="88" width="180" height="6" rx="3" fill="#333" opacity="0.12"/>
    <rect x="20" y="108" width="240" height="6" rx="3" fill="#333" opacity="0.12"/>
    <rect x="20" y="124" width="150" height="6" rx="3" fill="#333" opacity="0.12"/>
    <rect x="20" y="144" width="220" height="6" rx="3" fill="#333" opacity="0.12"/>
    <rect x="20" y="160" width="190" height="6" rx="3" fill="#333" opacity="0.12"/>
  </g>
  <rect x="30" y="30" width="110" height="32" rx="16" fill="rgba(255,255,255,0.9)"/>
  <text x="85" y="52" font-family="Arial,sans-serif" font-size="13" font-weight="700" fill="#dc2626" text-anchor="middle">&#x1F393; Skripsi</text>
  <rect x="460" y="30" width="110" height="32" rx="16" fill="rgba(34,197,94,0.9)"/>
  <text x="515" y="52" font-family="Arial,sans-serif" font-size="14" font-weight="700" fill="white" text-anchor="middle">&#x2B50; A</text>
  <text x="300" y="340" font-family="Arial,sans-serif" font-size="20" font-weight="700" fill="white" text-anchor="middle">Skripsi Manajemen SDM</text>
  <text x="300" y="366" font-family="Arial,sans-serif" font-size="13" fill="rgba(255,255,255,0.8)" text-anchor="middle">&#x1F4C4; 85 Halaman &#xB7; 30 Hari</text>
</svg>